<svg width="174" height="25" viewBox="0 0 174 25" fill="none" xmlns="http://www.w3.org/2000/svg">
<path d="M59.5693 8.68968C59.2887 8.52286 58.9475 8.43945 58.5456 8.43945C57.7116 8.43945 56.9002 8.78067 56.0889 9.46311C55.2851 10.1455 54.5723 10.9721 53.9733 11.9351H53.8141L54.5799 8.84133H47.8238V9.68301H50.7886L49.5678 14.824C48.438 16.1207 46.3603 18.4031 45.6779 19.2144C45.4201 19.5253 45.1547 19.7983 44.8893 20.0788C44.7149 20.2608 44.5481 20.4428 44.3737 20.6399C44.0173 21.057 43.3803 21.6029 42.8344 21.8683C42.7813 21.8911 42.7358 21.9062 42.6827 21.9214C41.97 22.2171 41.3785 22.1868 41.0601 21.8001C40.8326 21.5195 40.7947 21.0949 40.8326 20.7006C40.8402 20.6096 40.8629 20.5186 40.8781 20.4352C40.8932 20.367 40.9084 20.2836 40.9236 20.2153C41.007 19.8893 41.0828 19.5632 41.1738 19.2447C41.2496 18.9793 41.333 18.7215 41.4013 18.4561C41.4316 18.3348 41.4619 18.2135 41.4998 18.0922C41.5201 18.0163 41.5555 17.89 41.606 17.713C41.6894 17.4097 41.7728 17.114 41.8486 16.8107C41.9245 16.5301 41.9017 16.606 42.0837 15.9463C42.4098 14.7406 42.7434 13.5274 43.0315 12.3066C43.168 11.7227 43.2363 11.2299 43.2363 10.828C43.2363 10.7901 43.2287 10.7522 43.2287 10.7142L43.7671 8.53803H40.3397L39.8013 10.7977L38.444 16.4619C38.444 16.4619 38.4592 16.4316 38.4592 16.4088L38.3834 16.8334C38.1407 17.66 37.8374 18.4258 37.4659 19.131C37.0716 19.8741 36.6318 20.5262 36.1389 21.0949C35.646 21.6712 35.1304 22.111 34.5921 22.4219C34.0537 22.7403 33.5305 22.892 33.0149 22.892C32.6585 22.892 32.3628 22.801 32.1201 22.6266C31.885 22.4446 31.7637 22.1641 31.7637 21.7849C31.7637 21.6484 31.7789 21.5119 31.8168 21.3679C31.8471 21.2238 31.8775 21.0722 31.9002 20.9129L34.7968 8.84133H28.6397V9.68301H31.0889L29.4965 16.1965C28.5032 17.3415 27.2066 18.8353 26.5772 19.5784C26.1526 20.0864 25.7052 20.4959 25.2806 21.0039C24.9242 21.421 24.2872 21.9669 23.7413 22.2323C22.9603 22.6038 22.3082 22.5887 21.9669 22.1641C21.656 21.7849 21.694 21.1252 21.8077 20.6551C21.8911 20.3063 21.9821 19.9575 22.0807 19.6087C22.1565 19.3433 22.2399 19.0855 22.3082 18.8201C22.3385 18.6988 22.3688 18.5775 22.4067 18.4561C22.427 18.3803 22.4623 18.2539 22.5129 18.077C22.5963 17.7737 22.6797 17.478 22.7555 17.1747C22.8314 16.8941 22.8086 16.9699 22.9906 16.3102C23.3167 15.1046 23.6503 13.8914 23.9384 12.6706C24.0749 12.0867 24.1432 11.5938 24.1432 11.192C24.1432 10.229 23.8399 9.52377 23.2332 9.09156C22.6266 8.65177 21.8987 8.43945 21.0494 8.43945C19.859 8.43945 18.7898 8.78826 17.8344 9.48586C16.879 10.1835 16.0828 10.9645 15.4307 11.8365H15.2411C15.3473 10.9114 15.2184 10.1531 14.8468 9.56927C14.3615 8.81859 13.482 8.43945 12.2081 8.43945C11.0176 8.43945 9.94844 8.78826 8.99302 9.48586C8.03761 10.1835 7.24143 10.9645 6.58932 11.8365H6.49075L7.22627 8.84133H0.439794V9.68301H3.40461L0 23.9763H3.46527L5.47467 15.8401C5.78556 14.7634 6.18744 13.7776 6.71065 12.9132C7.28693 11.973 7.9087 11.2299 8.59873 10.6763C9.28117 10.1228 9.94844 9.84983 10.6005 9.84983C10.9569 9.84983 11.2527 9.94082 11.4953 10.1152C11.7304 10.2972 11.8517 10.6005 11.8517 11.0251C11.8517 11.1616 11.8365 11.2905 11.8214 11.427C11.7986 11.5635 11.7607 11.7227 11.7228 11.8971L8.83379 23.9687H12.3294L14.263 16.06C14.5739 14.8923 15.0136 13.8383 15.5748 12.9056C16.1435 11.9654 16.7728 11.2223 17.4553 10.6688C18.1377 10.1152 18.805 9.84224 19.4571 9.84224C19.8135 9.84224 20.1092 9.93324 20.3518 10.1076C20.5869 10.2896 20.7082 10.5929 20.7082 11.0176C20.7082 11.154 20.7006 11.2829 20.6779 11.4194C20.6551 11.5559 20.6172 11.7152 20.5793 11.8896L20.5566 11.9957L20.1623 13.6336C19.9424 14.5587 19.7225 15.4762 19.5026 16.4012C19.2827 17.3339 19.0552 18.259 18.8353 19.1917C18.6306 20.0637 18.3349 20.9736 18.2742 21.8683C18.2287 22.5735 18.4183 23.2711 18.949 23.764C19.5784 24.3403 20.4959 24.4995 21.3907 24.4161C23.0361 24.2644 24.1659 23.3697 25.2351 22.1186C26.4028 20.7461 27.4113 19.2371 28.4653 17.7813C28.7989 17.3187 29.1325 16.8562 29.4586 16.3937L28.5487 20.1395C28.4122 20.7006 28.344 21.1935 28.344 21.6181C28.344 22.5811 28.6624 23.2863 29.2842 23.7185C29.9136 24.1583 30.6567 24.3706 31.5059 24.3706C32.7874 24.3706 33.9248 23.9915 34.9181 23.2408C35.9114 22.4901 36.7607 21.656 37.4583 20.7385H37.5114C37.4659 20.9963 37.4052 21.2465 37.3825 21.5044C37.337 22.2095 37.5265 22.9072 38.0573 23.4C38.6184 23.9156 39.4146 24.0825 40.2184 24.0597C40.2639 24.0597 40.3094 24.0749 40.3549 24.0749C40.4079 24.0749 40.4459 24.0521 40.4989 24.0521C40.4989 24.0521 40.4989 24.0521 40.5065 24.0521C40.9008 24.037 41.2724 23.946 41.6288 23.8095C42.6979 23.4379 43.5396 22.7024 44.3433 21.7546C45.5111 20.3821 46.5196 18.8732 47.5736 17.4173C48.0209 16.8031 48.9536 15.696 49.5678 14.9075L47.4143 23.9763H50.8796L52.5781 17.1064C52.7525 16.3254 52.9876 15.5747 53.306 14.862C53.6624 14.0582 54.0491 13.3378 54.4662 12.7085C54.8832 12.0791 55.2775 11.5863 55.6567 11.2299C56.0358 10.8735 56.3618 10.6915 56.6348 10.6915C56.8547 10.6915 57.0291 10.8128 57.1353 11.0479C57.2414 11.2829 57.4082 11.518 57.6206 11.7531C57.8329 11.9881 58.1968 12.1095 58.7125 12.1095C59.3418 12.1095 59.7968 11.9199 60.0773 11.5332C60.3579 11.154 60.4944 10.737 60.4944 10.2896C60.4944 9.93324 60.4186 9.61476 60.2593 9.34937C60.1001 9.08398 59.8802 8.86408 59.6072 8.69726L59.5693 8.68968Z" fill="#5C5C5C"/>
<path d="M67.4022 16.4543C63.9369 16.4543 63.2166 19.1992 63.0877 22.6038C62.9588 19.1992 62.2384 16.4543 58.8035 16.4543C62.2687 16.4543 62.9588 13.7094 63.0877 10.2744C63.2166 13.7094 63.9066 16.4543 67.4022 16.4543Z" fill="#5C5C5C"/>
<path d="M172.93 15.1122C172.695 14.9227 171.8 14.5966 171.588 14.5284C169.381 13.8535 169.23 13.8232 167.296 13.444L166.94 13.3758C166.538 13.2924 165.78 13.2317 165.34 13.2772C164.885 13.3076 164.475 13.4137 164.119 13.5957C163.467 13.9217 163.012 14.4677 162.572 14.9909C162.254 15.37 161.95 15.7264 161.609 15.9842C161.435 16.1056 161.23 16.2193 161.056 16.2193C160.745 16.2117 160.457 15.8932 160.214 15.5899C160.055 15.3852 159.903 15.1729 159.751 14.9606C159.319 14.354 158.864 13.7322 158.288 13.2241C157.954 12.9284 157.082 12.2763 156.172 12.6099C155.551 12.8374 155.209 13.4289 154.982 13.9293C154.785 14.3691 154.595 14.862 154.428 15.3473C154.254 15.8781 154.08 16.424 153.928 16.9927C153.769 17.5538 153.617 18.1074 153.473 18.6761C153.397 18.9945 153.321 19.313 153.245 19.6239L153.071 20.3443C152.95 20.8523 152.821 21.3527 152.692 21.8456L152.639 22.0428C152.548 22.3688 152.464 22.7025 152.373 23.0133C152.358 22.9299 152.343 22.8465 152.328 22.7707C152.298 22.566 152.267 22.3688 152.237 22.1641C152.207 21.9594 152.176 21.7546 152.146 21.5575C152.032 20.7613 151.949 19.95 151.858 19.1538L151.827 18.9035C151.744 18.0998 151.653 17.3036 151.592 16.4847C151.517 15.6506 151.448 14.7938 151.395 13.9445C151.373 13.6564 151.357 13.3606 151.335 13.0649C151.297 12.4962 151.266 11.9275 151.198 11.3664C151.153 10.9797 151.122 10.6005 151.084 10.229C151.046 9.78162 151.001 9.34183 150.948 8.87928L150.887 8.40158C150.819 7.87838 150.766 7.46891 150.698 6.52108C150.66 6.02821 150.652 5.9448 150.637 5.80073C150.629 5.69457 150.607 5.55808 150.576 5.2017L150.493 4.15529C150.417 3.30604 150.311 2.46436 150.205 1.58477L150.091 0.758265C150.061 0.318471 149.826 0.0303306 149.439 0C149.181 0.0151653 148.855 0.159236 148.734 0.750682C148.393 2.88899 148.142 4.57992 147.907 6.17228C147.528 8.72763 147.21 10.9418 146.603 14.2781L146.588 14.354C146.436 15.1956 146.285 16.0676 145.89 16.8411L145.814 16.8183C145.754 16.7956 145.678 16.7349 145.625 16.697C145.238 16.3558 144.92 15.9387 144.594 15.4989C144.29 15.1046 143.979 14.6952 143.6 14.3236C143.001 13.7549 142.357 13.4744 141.697 13.4744C141.144 13.4744 140.711 13.7701 140.431 13.9824C140.325 14.0582 140.226 14.1416 140.127 14.2251C139.991 14.3388 139.854 14.4525 139.703 14.5511C139.324 14.7938 138.907 14.953 138.444 15.1198C137.868 15.3321 137.231 15.4459 136.617 15.4079C135.957 15.3625 135.426 15.0591 134.918 14.6497C134.804 14.5587 134.698 14.4601 134.592 14.3691C133.273 13.2014 132.135 11.7455 131.195 10.2593C130.452 9.0916 129.39 8.04519 127.889 8.16652C126.388 8.28784 125.341 9.59964 124.409 10.6385C124.045 11.0403 123.703 11.4574 123.355 11.882C123.339 11.9048 123.324 11.9199 123.309 11.9427L124.075 8.84895H117.319V9.69063H120.284L118.987 15.1501C117.857 16.4392 115.772 18.7443 115.09 19.5557C114.854 19.8362 114.619 20.0864 114.377 20.3367C114.18 20.549 113.982 20.7537 113.785 20.9812C113.429 21.3982 112.792 21.9442 112.246 22.2096C112.208 22.2323 112.17 22.2323 112.125 22.2551C111.404 22.566 110.79 22.5432 110.464 22.1489C110.312 21.9594 110.244 21.7015 110.229 21.4362C110.252 21.2466 110.282 21.0419 110.328 20.8144C110.388 20.5035 110.464 20.1319 110.548 19.7301C110.593 19.5102 110.639 19.2903 110.699 19.0476L112.633 11.2223L113.217 8.85654H109.789L109.152 11.518L107.886 16.7804C107.643 17.6372 107.325 18.4258 106.946 19.1462C106.551 19.8893 106.112 20.5414 105.619 21.1101C105.126 21.6864 104.61 22.1262 104.072 22.4371C103.534 22.7555 103.01 22.9072 102.495 22.9072C102.138 22.9072 101.843 22.8162 101.6 22.6418C101.365 22.4598 101.244 22.1793 101.244 21.8001C101.244 21.6636 101.259 21.5271 101.297 21.3831C101.327 21.239 101.357 21.0874 101.38 20.9281L104.277 8.85654H98.1196V9.69821H100.569L98.9688 16.2648C97.8694 17.5008 96.5651 18.949 96.0495 19.5632C95.8069 19.8438 95.5642 20.1016 95.3216 20.3594C95.132 20.5641 94.9349 20.7613 94.7453 20.9888C94.3889 21.4058 93.752 21.9518 93.206 22.2172C93.115 22.2627 93.0316 22.2778 92.9482 22.3157C92.2885 22.566 91.7274 22.5281 91.4317 22.1565C91.3331 22.0352 91.2724 21.8759 91.2421 21.7091C91.2421 21.6257 91.2421 21.5499 91.2649 21.4437C91.2876 21.2618 91.3331 21.0267 91.4014 20.7386L93.4183 12.7009C93.5548 12.1171 93.6231 11.6242 93.6231 11.2223C93.6231 10.7295 93.5472 10.3124 93.388 9.95602C93.2364 9.59964 93.0089 9.30391 92.7056 9.08402C92.099 8.64422 91.371 8.43191 90.5218 8.43191C89.3313 8.43191 88.2621 8.78071 87.3067 9.47831C86.3513 10.1759 85.5551 10.9569 84.903 11.8289H84.7286C84.8272 10.919 84.6983 10.1683 84.3267 9.59205C83.8414 8.84137 82.9619 8.46224 81.688 8.46224C80.4975 8.46224 79.4283 8.81104 78.4729 9.50865C77.5251 10.2062 76.7213 10.9873 76.0692 11.8593H75.9707L76.7062 8.86412H69.95V9.70579H72.9149L69.5178 23.9991H72.9831L74.9925 15.8629C75.3034 14.7862 75.7053 13.8004 76.2285 12.936C76.8047 11.9958 77.4265 11.2527 78.109 10.6991C78.7914 10.1456 79.4587 9.87261 80.1108 9.87261C80.4672 9.87261 80.7629 9.9636 80.998 10.138C81.233 10.32 81.3543 10.6233 81.3543 11.0479C81.3543 11.1844 81.3392 11.3133 81.324 11.4498C81.3013 11.5863 81.2634 11.7455 81.2254 11.9199L78.3364 23.9915H81.832L83.7656 16.0828C84.0765 14.9151 84.5163 13.8611 85.0774 12.9284C85.6461 11.9882 86.2755 11.2451 86.9579 10.6915C87.6404 10.138 88.3076 9.86503 88.9597 9.86503C89.3161 9.86503 89.6118 9.95602 89.8469 10.1304C89.9606 10.2138 90.0441 10.3352 90.0971 10.4792C90.1502 10.6309 90.1805 10.8053 90.1805 11.01C90.1805 11.1465 90.173 11.2754 90.1502 11.4119C90.1275 11.5484 90.0896 11.7076 90.0516 11.882C90.0441 11.9199 90.0365 11.9503 90.0289 11.9882C89.9 12.5341 89.7711 13.0801 89.6346 13.626C89.4147 14.5511 89.1948 15.4686 88.9749 16.3937C88.755 17.3264 88.5275 18.2514 88.3076 19.1841C88.1636 19.7983 88.0043 20.4277 87.883 21.0646C87.8603 21.2238 87.8299 21.3907 87.7996 21.5726C87.792 21.6712 87.7541 21.7698 87.7541 21.8684C87.7541 21.929 87.7541 21.9897 87.7541 22.0503C87.7541 22.0731 87.7541 22.0958 87.7541 22.111C87.7541 22.1262 87.7617 22.1413 87.7617 22.1565C87.7617 22.4522 87.8223 22.7176 87.9058 22.9603C87.9285 23.0285 87.9664 23.0968 87.9967 23.1574C88.0953 23.3546 88.2166 23.529 88.3683 23.6882C88.3986 23.7185 88.4062 23.7564 88.4365 23.7868C88.5048 23.8474 88.5958 23.8702 88.664 23.9233C88.7853 24.0143 88.9142 24.0901 89.0507 24.1507C89.1796 24.2114 89.3161 24.2569 89.4526 24.2948C89.6953 24.3555 89.9531 24.4086 90.2412 24.4161C90.264 24.4161 90.2791 24.4237 90.2943 24.4237C90.3549 24.4237 90.4156 24.4161 90.4763 24.4086C90.6052 24.4086 90.7341 24.4086 90.863 24.401C92.5084 24.2493 93.6382 23.3546 94.7074 22.1034C95.8751 20.731 96.876 19.222 97.9376 17.7662C98.1651 17.4477 98.5366 16.9927 98.9233 16.515L98.0362 20.1547C97.8997 20.7158 97.8314 21.2087 97.8314 21.6333C97.8314 22.5963 98.1499 23.3015 98.7717 23.7337C99.401 24.1735 100.144 24.3858 100.993 24.3858C102.275 24.3858 103.412 24.0067 104.406 23.256C105.399 22.5053 106.248 21.6712 106.961 20.7537C106.878 21.1177 106.802 21.4892 106.779 21.8532C106.733 22.5584 106.923 23.256 107.454 23.7489C108.083 24.3251 109.001 24.4844 109.895 24.401C110.032 24.3858 110.146 24.3403 110.282 24.3176C110.525 24.2721 110.775 24.2417 111.003 24.1583C112.087 23.7868 112.928 23.0513 113.74 22.1034C114.908 20.731 115.916 19.222 116.97 17.7662C117.417 17.1444 118.365 16.0297 118.979 15.2335L116.902 23.9839H120.367L122.066 17.114C122.323 16.3482 122.194 16.4847 122.68 15.5672C123.051 14.862 123.491 14.1871 123.976 13.5502C124.522 12.8374 125.114 12.1702 125.736 11.5332C126.327 10.9418 126.926 10.32 127.692 9.94844C128.769 9.42524 129.747 9.94844 130.452 10.7825C131.059 11.4953 131.597 12.2611 132.12 13.0422C132.939 14.2705 133.811 15.6203 135.115 16.3785C136.147 16.9776 137.511 16.8562 138.603 16.4998C139.445 16.2269 140.218 15.7871 140.924 15.2639C141.257 15.0212 141.515 14.8165 141.955 14.8923C142.289 14.9454 142.592 15.1501 142.842 15.3776C143.145 15.6582 143.403 15.9918 143.669 16.3482L143.904 16.6591C144.199 17.0458 144.51 17.4401 144.905 17.7586C145.17 17.9709 145.974 18.623 146.656 17.9633C146.959 17.6752 147.134 17.3112 147.285 16.9548C147.437 16.5833 147.558 16.2117 147.657 15.8326C147.748 15.461 147.794 15.0971 147.847 14.7407C147.869 14.5511 147.9 14.3615 147.93 14.1568C148.006 13.6184 148.097 13.0877 148.188 12.5417L148.37 11.2906C148.461 10.6612 148.552 10.0394 148.628 9.41007C148.84 7.86321 149.029 6.96846 149.219 6.09645C149.265 5.86897 149.31 5.64907 149.363 5.41401C149.469 6.49075 149.575 7.44616 149.674 8.38641C149.864 10.1304 150.061 11.9275 150.258 14.445C150.417 16.4998 150.599 18.8277 150.811 21.1025C150.902 21.9214 150.993 22.7707 151.198 23.6124L151.244 23.8019C151.304 24.0446 151.373 24.3251 151.532 24.5905C151.683 24.8256 151.911 24.9773 152.161 25C152.184 25 152.214 25 152.237 25C152.502 25 152.775 24.8711 152.995 24.636C153.336 24.2948 153.488 23.855 153.625 23.4607L153.678 23.3167C153.905 22.6797 154.102 22.02 154.277 21.3527C154.474 20.5717 154.656 19.7831 154.845 18.9945C155.035 18.168 155.217 17.4249 155.429 16.6742C155.679 15.7947 155.907 15.1046 156.165 14.5056C156.263 14.2554 156.392 13.9824 156.574 13.9142C156.726 13.8611 156.938 13.9066 157.196 14.0431C157.795 14.3995 158.22 14.9985 158.659 15.6354C158.879 15.9539 159.107 16.28 159.357 16.5681C159.804 17.1292 160.297 17.4553 160.813 17.5311C161.556 17.6676 162.345 17.3036 163.073 16.4695C163.201 16.3179 163.323 16.1662 163.444 16.007C163.77 15.5899 164.081 15.1881 164.491 14.9454C165.158 14.5435 166.022 14.5663 166.864 14.6573C168.289 14.7862 170.951 15.3776 172.088 15.6354C172.437 15.7113 172.665 15.7643 172.695 15.7643L173.923 15.8781L172.968 15.0971L172.93 15.1122Z" fill="#5C5C5C"/>
</svg>
