<svg width="90" height="20" viewBox="0 0 90 20" fill="none" xmlns="http://www.w3.org/2000/svg">
<path d="M9.04894 2.92705C9.3483 2.00574 10.6517 2.00574 10.9511 2.92705L12.0206 6.21885C12.1545 6.63087 12.5385 6.90983 12.9717 6.90983H16.4329C17.4016 6.90983 17.8044 8.14945 17.0207 8.71885L14.2205 10.7533C13.87 11.0079 13.7234 11.4593 13.8572 11.8713L14.9268 15.1631C15.2261 16.0844 14.1717 16.8506 13.388 16.2812L10.5878 14.2467C10.2373 13.9921 9.7627 13.9921 9.41221 14.2467L6.61204 16.2812C5.82833 16.8506 4.77385 16.0844 5.0732 15.1631L6.14277 11.8713C6.27665 11.4593 6.12999 11.0079 5.7795 10.7533L2.97933 8.71885C2.19562 8.14945 2.59839 6.90983 3.56712 6.90983H7.02832C7.46154 6.90983 7.8455 6.63087 7.97937 6.21885L9.04894 2.92705Z" fill="#C1ACC9"/>
<path d="M26.5489 2.92705C26.8483 2.00574 28.1517 2.00574 28.4511 2.92705L29.5206 6.21885C29.6545 6.63087 30.0385 6.90983 30.4717 6.90983H33.9329C34.9016 6.90983 35.3044 8.14945 34.5207 8.71885L31.7205 10.7533C31.37 11.0079 31.2234 11.4593 31.3572 11.8713L32.4268 15.1631C32.7261 16.0844 31.6717 16.8506 30.888 16.2812L28.0878 14.2467C27.7373 13.9921 27.2627 13.9921 26.9122 14.2467L24.112 16.2812C23.3283 16.8506 22.2739 16.0844 22.5732 15.1631L23.6428 11.8713C23.7766 11.4593 23.63 11.0079 23.2795 10.7533L20.4793 8.71885C19.6956 8.14945 20.0984 6.90983 21.0671 6.90983H24.5283C24.9615 6.90983 25.3455 6.63087 25.4794 6.21885L26.5489 2.92705Z" fill="#C1ACC9"/>
<path d="M44.0489 2.92705C44.3483 2.00574 45.6517 2.00574 45.9511 2.92705L47.0206 6.21885C47.1545 6.63087 47.5385 6.90983 47.9717 6.90983H51.4329C52.4016 6.90983 52.8044 8.14945 52.0207 8.71885L49.2205 10.7533C48.87 11.0079 48.7234 11.4593 48.8572 11.8713L49.9268 15.1631C50.2261 16.0844 49.1717 16.8506 48.388 16.2812L45.5878 14.2467C45.2373 13.9921 44.7627 13.9921 44.4122 14.2467L41.612 16.2812C40.8283 16.8506 39.7739 16.0844 40.0732 15.1631L41.1428 11.8713C41.2766 11.4593 41.13 11.0079 40.7795 10.7533L37.9793 8.71885C37.1956 8.14945 37.5984 6.90983 38.5671 6.90983H42.0283C42.4615 6.90983 42.8455 6.63087 42.9794 6.21885L44.0489 2.92705Z" fill="#C1ACC9"/>
<path d="M61.5489 2.92705C61.8483 2.00574 63.1517 2.00574 63.4511 2.92705L64.5206 6.21885C64.6545 6.63087 65.0385 6.90983 65.4717 6.90983H68.9329C69.9016 6.90983 70.3044 8.14945 69.5207 8.71885L66.7205 10.7533C66.37 11.0079 66.2234 11.4593 66.3572 11.8713L67.4268 15.1631C67.7261 16.0844 66.6717 16.8506 65.888 16.2812L63.0878 14.2467C62.7373 13.9921 62.2627 13.9921 61.9122 14.2467L59.112 16.2812C58.3283 16.8506 57.2739 16.0844 57.5732 15.1631L58.6428 11.8713C58.7766 11.4593 58.63 11.0079 58.2795 10.7533L55.4793 8.71885C54.6956 8.14945 55.0984 6.90983 56.0671 6.90983H59.5283C59.9615 6.90983 60.3455 6.63087 60.4794 6.21885L61.5489 2.92705Z" fill="#C1ACC9"/>
<path d="M79.0489 2.92705C79.3483 2.00574 80.6517 2.00574 80.9511 2.92705L82.0206 6.21885C82.1545 6.63087 82.5385 6.90983 82.9717 6.90983H86.4329C87.4016 6.90983 87.8044 8.14945 87.0207 8.71885L84.2205 10.7533C83.87 11.0079 83.7234 11.4593 83.8572 11.8713L84.9268 15.1631C85.2261 16.0844 84.1717 16.8506 83.388 16.2812L80.5878 14.2467C80.2373 13.9921 79.7627 13.9921 79.4122 14.2467L76.612 16.2812C75.8283 16.8506 74.7739 16.0844 75.0732 15.1631L76.1428 11.8713C76.2766 11.4593 76.13 11.0079 75.7795 10.7533L72.9793 8.71885C72.1956 8.14945 72.5984 6.90983 73.5671 6.90983H77.0283C77.4615 6.90983 77.8455 6.63087 77.9794 6.21885L79.0489 2.92705Z" fill="#C1ACC9"/>
</svg>
